<?xml version="1.0" encoding="UTF-8" standalone="no"?>
<!-- Created with Inkscape (http://www.inkscape.org/) -->

<svg
   xmlns:dc="http://purl.org/dc/elements/1.1/"
   xmlns:cc="http://creativecommons.org/ns#"
   xmlns:rdf="http://www.w3.org/1999/02/22-rdf-syntax-ns#"
   xmlns:svg="http://www.w3.org/2000/svg"
   xmlns="http://www.w3.org/2000/svg"
   version="1.1"
   width="240"
   height="70"
   id="svg6051">
  <defs
     id="defs6053" />
  <metadata
     id="metadata6056">
    <rdf:RDF>
      <cc:Work
         rdf:about="">
        <dc:format>image/svg+xml</dc:format>
        <dc:type
           rdf:resource="http://purl.org/dc/dcmitype/StillImage" />
        <dc:title></dc:title>
      </cc:Work>
    </rdf:RDF>
  </metadata>
  <g
     transform="translate(-345.72101,-518.64656)"
     id="layer1">
    <path
       d="m 462.04901,544.4281 c -0.84,-5.935 -6.52,-10.445 -13.04,-10.445 -11.785,0 -16.215,10.025 -16.215,20.475 0,9.95 4.43,19.975 16.215,19.975 8.02,0 12.535,-5.515 13.535,-13.375 l 12.71,0 c -1.34,14.88 -11.62,24.405 -26.245,24.405 -18.475,0 -29.34,-13.79 -29.34,-31.005 0,-17.72 10.865,-31.51 29.34,-31.51 13.12,0 24.15,7.69 25.745,21.48 l -12.705,0 z"
       id="path984"
       style="fill:#ffffff;fill-opacity:1;fill-rule:nonzero;stroke:none" />
    <path
       d="m 479.18653,524.36954 28.085,0 c 11.365,0 19.055,3.675 19.055,14.79 0,5.855 -2.92,9.95 -8.105,12.455 7.27,2.09 10.95,7.69 10.95,15.13 0,12.125 -10.28,17.3 -21.065,17.3 l -28.92,0 0,-59.675 z m 13.125,24.155 13.29,0 c 4.595,0 8.02,-2.095 8.02,-7.11 0,-5.68 -4.345,-6.85 -9.025,-6.85 l -12.285,0 0,13.96 z m 0,25.32 14.045,0 c 5.18,0 9.69,-1.67 9.69,-7.85 0,-6.1 -3.845,-8.53 -9.445,-8.53 l -14.29,0 0,16.38 z"
       id="path988"
       style="fill:#ffffff;fill-opacity:1;fill-rule:nonzero;stroke:none" />
    <path
       d="m 545.30697,564.23506 c 0,7.94 6.19,11.03 13.21,11.03 4.595,0 11.615,-1.335 11.615,-7.435 0,-6.435 -8.94,-7.52 -17.715,-9.865 -8.86,-2.34 -17.805,-5.77 -17.805,-16.965 0,-12.205 11.53,-18.055 22.315,-18.055 12.45,0 23.905,5.43 23.905,19.225 l -12.705,0 c -0.415,-7.185 -5.52,-9.025 -11.79,-9.025 -4.17,0 -9.025,1.755 -9.025,6.77 0,4.595 2.845,5.18 17.805,9.03 4.35,1.08 17.72,3.84 17.72,17.38 0,10.95 -8.61,19.14 -24.825,19.14 -13.205,0 -25.575,-6.52 -25.41,-21.23 l 12.705,0 z"
       id="path992"
       style="fill:#ffffff;fill-opacity:1;fill-rule:nonzero;stroke:none" />
    <path
       d="m 348.60505,553.63906 c 0,-17.76 14.395,-32.155 32.155,-32.155 17.765,0 32.165,14.395 32.165,32.155 0,17.765 -14.4,32.17 -32.165,32.17 -17.76,0 -32.155,-14.405 -32.155,-32.17 m 62.37,0 c -4.875,-10.63 -16.19,-19.175 -30.215,-19.175 -14.025,0 -25.335,8.545 -30.21,19.175 4.875,10.635 16.185,19.175 30.21,19.175 14.025,0 25.34,-8.54 30.215,-19.175"
       id="path996"
       style="fill:#ffffff;fill-opacity:1;fill-rule:nonzero;stroke:none" />
    <path
       d="m 363.56057,553.47754 c 0,-9.42 7.625,-17.05 17.035,-17.05 9.415,0 17.045,7.63 17.045,17.05 0,9.41 -7.63,17.04 -17.045,17.04 -9.41,0 -17.035,-7.63 -17.035,-17.04"
       id="path1000"
       style="fill:#ffffff;fill-opacity:1;fill-rule:nonzero;stroke:none" />
  </g>
</svg>
